<?xml version="1.0" standalone="no"?>
<!DOCTYPE svg PUBLIC "-//W3C//DTD SVG 20010904//EN"
 "http://www.w3.org/TR/2001/REC-SVG-20010904/DTD/svg10.dtd">
<svg version="1.0" xmlns="http://www.w3.org/2000/svg"
 width="192.000000pt" height="171.000000pt" viewBox="0 0 192.000000 171.000000"
 preserveAspectRatio="xMidYMid meet">
<g transform="translate(0.000000,171.000000) scale(0.100000,-0.100000)"
fill="#000000" stroke="none">
<path d="M255 1656 c-116 -43 -112 -160 7 -211 133 -56 148 -65 148 -95 0 -15
-6 -33 -14 -39 -20 -17 -107 -25 -138 -12 -24 9 -28 16 -28 51 0 39 -1 41 -27
38 -27 -3 -28 -5 -28 -63 0 -60 0 -60 35 -72 19 -7 64 -12 100 -12 124 -1 187
33 197 106 8 64 -13 87 -125 140 -54 24 -102 51 -108 59 -36 46 42 89 123 68
16 -4 23 -15 25 -38 3 -27 7 -31 33 -31 29 0 30 2 33 46 2 31 -2 50 -12 58
-23 19 -174 24 -221 7z"/>
<path d="M540 1510 l0 -80 445 0 445 0 0 -385 0 -385 85 0 85 0 0 465 0 465
-530 0 -530 0 0 -80z"/>
<path d="M720 1175 c0 -33 2 -35 35 -35 l35 0 0 -150 0 -150 -35 0 c-33 0 -35
-2 -35 -35 l0 -35 195 0 195 0 0 111 0 110 -42 -3 -43 -3 -3 -72 -3 -73 -64 0
-65 0 0 149 0 150 28 3 c23 3 27 8 27 33 l0 30 -112 3 -113 3 0 -36z"/>
<path d="M220 700 l0 -480 473 2 472 3 0 80 0 80 -388 5 -388 5 -2 390 -2 390
-82 3 -83 3 0 -481z"/>
<path d="M1417 585 c-54 -19 -85 -50 -118 -120 -57 -119 -26 -238 76 -293 37
-20 154 -21 208 -3 80 27 137 101 137 176 l0 35 -79 0 -78 0 -7 -32 c-5 -28
-2 -36 19 -52 32 -23 20 -41 -35 -56 -31 -8 -47 -7 -79 6 -59 23 -85 65 -86
135 0 129 102 174 200 88 28 -25 41 -30 77 -27 l43 3 3 73 3 72 -36 0 c-24 0
-35 -5 -35 -15 0 -11 -8 -11 -42 5 -50 23 -117 25 -171 5z"/>
</g>
</svg>
